<?xml version="1.0" encoding="UTF-8"?>
<svg id="Capa_2" xmlns="http://www.w3.org/2000/svg" version="1.1" viewBox="0 0 52 52">
  <!-- Generator: Adobe Illustrator 29.5.1, SVG Export Plug-In . SVG Version: 2.1.0 Build 141)  -->
  <defs>
    <style>
      .st0 {
        fill: #07afea;
      }

      .st1 {
        fill: #fff;
      }
    </style>
  </defs>
  <rect class="st0" width="52" height="52" rx="6.78" ry="6.78"/>
  <g id="Capa_4">
    <path class="st1" d="M13.72,40.14c-.49-.72-1.49-1.15-2.58-1.16-1.4,0-2.41.58-2.41,1.58s1.16,1.3,2.53,1.49c2.15.3,4.19.89,4.19,3.23-.01,2.34-2.15,3.22-4.32,3.22-2,0-3.53-.61-4.48-2.37l1.25-.83c.74,1.27,2.04,1.71,3.25,1.71s2.64-.42,2.64-1.73c0-1.13-1.21-1.52-2.67-1.71-2.07-.28-4.04-.8-4.04-3.04,0-2.16,2.15-2.99,4.02-2.99,1.5,0,3.01.36,3.89,1.76l-1.27.85h0Z"/>
    <path class="st1" d="M17.91,47.44c0,1.27-1.89,1.27-1.89,0s1.89-1.25,1.89,0Z"/>
    <path class="st1" d="M27.93,46.92c-1.07,1.06-2.46,1.55-3.92,1.55-3.78,0-5.48-2.61-5.5-5.35-.01-2.74,1.77-5.47,5.5-5.47,1.4,0,2.76.52,3.81,1.58l-1.12,1.07c-.74-.73-1.73-1.07-2.7-1.07-2.65,0-3.86,1.95-3.84,3.87.01,1.91,1.15,3.8,3.84,3.8.97,0,2.04-.4,2.77-1.13l1.15,1.15h.01Z"/>
    <path class="st1" d="M30.7,47.44c0,1.27-1.89,1.27-1.89,0s1.89-1.25,1.89,0Z"/>
    <path class="st1" d="M40.06,46.07h-5.65l-.98,2.19h-1.77l4.68-10.43h1.82l4.68,10.43h-1.77l-1-2.19h-.01ZM37.24,39.59l-2.21,4.96h4.41l-2.21-4.96h0Z"/>
    <path class="st1" d="M45.35,47.44c0,1.27-1.89,1.27-1.89,0s1.89-1.25,1.89,0Z"/>
    <path class="st1" d="M34.64,8.25c1.88-1.41,4.11-2.24,6.44-2.37,1.73-.1,3.46.19,5.08.85-.06.11-.11.23-.17.34-9.28,3.32-8.44,19.82-17.96,24.57-3.83,1.91-12.18,1.56-15.08-1.02,2.77,0,4.97-.6,6.76-1.59,6.07-3.38,6.79-12.27,11.87-17.89.93-1.03,1.95-1.99,3.05-2.88h0Z"/>
    <path class="st1" d="M5.83,3.5c9.88-.18,14.69,3.73,16.27,12.03.29,1.5.64,4.24.17,5.93-11.97.18-16.62-5.92-16.44-17.96h0Z"/>
  </g>
</svg>