<?xml version="1.0" encoding="UTF-8"?><svg id="Capa_2" xmlns="http://www.w3.org/2000/svg" viewBox="0 0 38.45 27.97"><defs><style>.cls-1{fill:#fff;}</style></defs><g id="Capa_2-2"><path class="cls-1" d="M27.46,4.53c1.79-1.34,3.92-2.13,6.14-2.26,1.65-.09,3.3.18,4.85.81-.05.11-.11.22-.16.32-8.85,3.16-8.04,18.89-17.12,23.42-3.65,1.82-11.61,1.48-14.37-.97,2.64,0,4.74-.57,6.45-1.52,5.79-3.22,6.47-11.7,11.32-17.05.89-.98,1.86-1.89,2.91-2.75h0Z"/><path class="cls-1" d="M0,0c9.42-.17,14,3.56,15.51,11.47.27,1.43.61,4.04.16,5.65C4.26,17.3-.17,11.48,0,0H0Z"/></g></svg>