<?xml version="1.0" encoding="UTF-8"?>
<svg id="Capa_2" xmlns="http://www.w3.org/2000/svg" version="1.1" viewBox="0 0 2600 606">
  <!-- Generator: Adobe Illustrator 29.3.1, SVG Export Plug-In . SVG Version: 2.1.0 Build 151)  -->
  <path d="M2600.1,71.5h-.2c-83,0-120.9-65.9-259.8-71.2h-4.6c-4.3,0-8.7-.2-13.3-.2h-.1c-62.5,0-104.7,11.8-142.8,25.8-2.9,1.1-5.8,2.2-8.7,3.3-4.3,1.6-8.6,3.3-12.9,5-4.3,1.7-8.6,3.4-12.9,5-5.7,2.2-11.5,4.4-17.3,6.6-11.6,4.3-23.6,8.4-36.3,12-1.6.5-3.2.9-4.8,1.3-27.5,7.4-58.9,12.5-98.5,12.5-114.4,0-160.8-41.9-250.4-61.6-5.5-1.2-11.1-2.3-17-3.3-3.9-.7-7.9-1.3-11.9-1.9-20.3-2.9-42.9-4.7-68.7-4.7-165.2,0-176.4,71.5-339.8,71.5h0c-83,0-120.9-65.8-259.7-71.1h-4.5c-4.3,0-8.8-.2-13.4-.2h0c-115.1,0-161.6,40.1-240.3,60.2h-.4c-1.4.4-2.8.7-4.3,1.1-.2,0-.5.1-.7.2-3,.7-6.1,1.4-9.2,2.1-.4,0-.7.2-1,.2-1.5.3-3.1.6-4.7.9-.2,0-.4,0-.6,0-1.2.2-2.4.4-3.6.7-.6,0-1.2.2-1.8.3-3.6.6-7.2,1.2-10.9,1.7h-.2c-1.6.2-3.1.4-4.7.6-.3,0-.7,0-1,.1-1,0-2,.2-3,.4-.9.1-1.9.2-2.8.3-5.5.6-11.2,1.1-17.1,1.5h-1.3c-5.4.3-11,.6-16.8.7-3.2,0-6.5.1-9.9.1-95.7,0-143.8-29.3-209.5-50.4-16-5.1-33.1-9.8-52.1-13.4-3.8-.7-7.7-1.4-11.7-2-2-.3-4-.6-6-.9C388.4,1.9,365.8,0,340,0h-7.6C174.2,2.2,160.8,71.5,0,71.5v534.5h0c0,0,1295.9,0,1295.9,0,0,0,0,0,0,0h4.1s0,0,0,0h687.7s0,0,0,0c8.2,0,15.5,0,22,0h590.4V71.5Z"/>
</svg>